<mxfile host="app.diagrams.net" agent="Mozilla/5.0 (Windows NT 10.0; Win64; x64) AppleWebKit/537.36 (KHTML, like Gecko) Chrome/133.0.0.0 Safari/537.36 Edg/133.0.0.0" version="26.1.0">
  <diagram name="Page-1" id="13e1069c-82ec-6db2-03f1-153e76fe0fe0">
    <mxGraphModel dx="1603" dy="706" grid="1" gridSize="10" guides="1" tooltips="1" connect="1" arrows="1" fold="1" page="1" pageScale="1" pageWidth="1100" pageHeight="850" background="none" math="0" shadow="0">
      <root>
        <mxCell id="0" />
        <mxCell id="1" parent="0" />
        <mxCell id="7baba1c4bc27f4b0-2" value="Système&amp;nbsp;" style="shape=umlLifeline;perimeter=lifelinePerimeter;whiteSpace=wrap;html=1;container=1;collapsible=0;recursiveResize=0;outlineConnect=0;rounded=1;shadow=0;comic=0;labelBackgroundColor=none;strokeWidth=1;fontFamily=Verdana;fontSize=12;align=center;" parent="1" vertex="1">
          <mxGeometry x="240" y="80" width="100" height="1410" as="geometry" />
        </mxCell>
        <mxCell id="7baba1c4bc27f4b0-10" value="" style="html=1;points=[];perimeter=orthogonalPerimeter;rounded=0;shadow=0;comic=0;labelBackgroundColor=none;strokeWidth=1;fontFamily=Verdana;fontSize=12;align=center;" parent="7baba1c4bc27f4b0-2" vertex="1">
          <mxGeometry x="40" y="100" width="10" height="760" as="geometry" />
        </mxCell>
        <mxCell id="7baba1c4bc27f4b0-3" value="SGDB" style="shape=umlLifeline;perimeter=lifelinePerimeter;whiteSpace=wrap;html=1;container=1;collapsible=0;recursiveResize=0;outlineConnect=0;rounded=1;shadow=0;comic=0;labelBackgroundColor=none;strokeWidth=1;fontFamily=Verdana;fontSize=12;align=center;" parent="1" vertex="1">
          <mxGeometry x="440" y="80" width="100" height="1340" as="geometry" />
        </mxCell>
        <mxCell id="7baba1c4bc27f4b0-13" value="" style="html=1;points=[];perimeter=orthogonalPerimeter;rounded=0;shadow=0;comic=0;labelBackgroundColor=none;strokeWidth=1;fontFamily=Verdana;fontSize=12;align=center;" parent="7baba1c4bc27f4b0-3" vertex="1">
          <mxGeometry x="45" y="120" width="10" height="200" as="geometry" />
        </mxCell>
        <mxCell id="7baba1c4bc27f4b0-4" value="Service de Notification" style="shape=umlLifeline;perimeter=lifelinePerimeter;whiteSpace=wrap;html=1;container=1;collapsible=0;recursiveResize=0;outlineConnect=0;rounded=1;shadow=0;comic=0;labelBackgroundColor=none;strokeWidth=1;fontFamily=Verdana;fontSize=12;align=center;" parent="1" vertex="1">
          <mxGeometry x="650" y="80" width="100" height="1380" as="geometry" />
        </mxCell>
        <mxCell id="7baba1c4bc27f4b0-8" value="A&lt;span style=&quot;background-color: transparent; color: light-dark(rgb(0, 0, 0), rgb(255, 255, 255));&quot;&gt;dministrateur&lt;/span&gt;" style="shape=umlLifeline;perimeter=lifelinePerimeter;whiteSpace=wrap;html=1;container=1;collapsible=0;recursiveResize=0;outlineConnect=0;rounded=1;shadow=0;comic=0;labelBackgroundColor=none;strokeWidth=1;fontFamily=Verdana;fontSize=12;align=center;" parent="1" vertex="1">
          <mxGeometry x="20" y="80" width="120" height="1420" as="geometry" />
        </mxCell>
        <mxCell id="mBNDETqpcHyeqGvDYLxR-3" value="Démarrer audit" style="text;whiteSpace=wrap;html=1;" parent="7baba1c4bc27f4b0-8" vertex="1">
          <mxGeometry x="110" y="90" width="110" height="40" as="geometry" />
        </mxCell>
        <mxCell id="7baba1c4bc27f4b0-14" value="Récupérer données" style="html=1;verticalAlign=bottom;endArrow=block;labelBackgroundColor=none;fontFamily=Verdana;fontSize=12;edgeStyle=elbowEdgeStyle;elbow=vertical;" parent="1" target="7baba1c4bc27f4b0-3" edge="1">
          <mxGeometry y="10" relative="1" as="geometry">
            <mxPoint x="295" y="230" as="sourcePoint" />
            <mxPoint x="445" y="230.00000000000023" as="targetPoint" />
            <mxPoint as="offset" />
            <Array as="points">
              <mxPoint x="280" y="230" />
            </Array>
          </mxGeometry>
        </mxCell>
        <mxCell id="mBNDETqpcHyeqGvDYLxR-2" value="" style="endArrow=classic;html=1;rounded=0;fontSize=12;startSize=8;endSize=8;curved=1;" parent="1" source="7baba1c4bc27f4b0-8" target="7baba1c4bc27f4b0-2" edge="1">
          <mxGeometry width="50" height="50" relative="1" as="geometry">
            <mxPoint x="300" y="310" as="sourcePoint" />
            <mxPoint x="350" y="260" as="targetPoint" />
            <Array as="points">
              <mxPoint x="190" y="200" />
            </Array>
          </mxGeometry>
        </mxCell>
        <mxCell id="mBNDETqpcHyeqGvDYLxR-8" value="Données reçues" style="html=1;verticalAlign=bottom;endArrow=open;dashed=1;endSize=8;curved=0;rounded=0;fontSize=12;exitX=0.36;exitY=0.465;exitDx=0;exitDy=0;exitPerimeter=0;" parent="1" source="7baba1c4bc27f4b0-13" target="7baba1c4bc27f4b0-2" edge="1">
          <mxGeometry relative="1" as="geometry">
            <mxPoint x="470" y="370" as="sourcePoint" />
            <mxPoint x="390" y="370" as="targetPoint" />
            <Array as="points" />
          </mxGeometry>
        </mxCell>
        <mxCell id="mBNDETqpcHyeqGvDYLxR-9" value="alt&amp;nbsp;" style="shape=umlFrame;whiteSpace=wrap;html=1;pointerEvents=0;" parent="1" vertex="1">
          <mxGeometry x="20" y="430" width="880" height="610" as="geometry" />
        </mxCell>
        <mxCell id="mBNDETqpcHyeqGvDYLxR-20" value="" style="shape=umlFrame;whiteSpace=wrap;html=1;pointerEvents=0;align=center;" parent="1" vertex="1">
          <mxGeometry width="1100" height="1720" as="geometry" />
        </mxCell>
        <mxCell id="mBNDETqpcHyeqGvDYLxR-21" value="Analyser données" style="html=1;verticalAlign=bottom;endArrow=block;labelBackgroundColor=none;fontFamily=Verdana;fontSize=12;edgeStyle=elbowEdgeStyle;elbow=vertical;" parent="1" edge="1">
          <mxGeometry y="10" relative="1" as="geometry">
            <mxPoint x="290" y="340" as="sourcePoint" />
            <mxPoint x="490" y="340" as="targetPoint" />
            <mxPoint as="offset" />
            <Array as="points">
              <mxPoint x="310" y="340" />
            </Array>
          </mxGeometry>
        </mxCell>
        <mxCell id="mBNDETqpcHyeqGvDYLxR-22" value="Résultats d&#39;analyse&amp;nbsp;" style="html=1;verticalAlign=bottom;endArrow=open;dashed=1;endSize=8;curved=0;rounded=0;fontSize=12;exitX=0.12;exitY=0.929;exitDx=0;exitDy=0;exitPerimeter=0;" parent="1" source="7baba1c4bc27f4b0-13" target="7baba1c4bc27f4b0-2" edge="1">
          <mxGeometry x="-0.0042" relative="1" as="geometry">
            <mxPoint x="499" y="303" as="sourcePoint" />
            <mxPoint x="310" y="386" as="targetPoint" />
            <Array as="points" />
            <mxPoint as="offset" />
          </mxGeometry>
        </mxCell>
        <mxCell id="mBNDETqpcHyeqGvDYLxR-24" value=" [Erreur détectée]" style="text;html=1;align=center;verticalAlign=middle;resizable=0;points=[];autosize=1;strokeColor=none;fillColor=none;fontSize=16;" parent="1" vertex="1">
          <mxGeometry x="90" y="450" width="140" height="30" as="geometry" />
        </mxCell>
        <mxCell id="mBNDETqpcHyeqGvDYLxR-25" value="" style="endArrow=block;endFill=1;html=1;edgeStyle=orthogonalEdgeStyle;align=left;verticalAlign=top;rounded=0;fontSize=12;startSize=8;endSize=8;curved=1;" parent="1" edge="1">
          <mxGeometry x="-1" relative="1" as="geometry">
            <mxPoint x="290" y="520" as="sourcePoint" />
            <mxPoint x="490" y="520" as="targetPoint" />
            <Array as="points">
              <mxPoint x="290" y="520" />
              <mxPoint x="290" y="521" />
            </Array>
          </mxGeometry>
        </mxCell>
        <mxCell id="mBNDETqpcHyeqGvDYLxR-27" value="Enregistrer erreur -" style="text;whiteSpace=wrap;html=1;" parent="1" vertex="1">
          <mxGeometry x="330" y="490" width="130" height="40" as="geometry" />
        </mxCell>
        <mxCell id="mBNDETqpcHyeqGvDYLxR-28" value="" style="html=1;verticalAlign=bottom;endArrow=open;dashed=1;endSize=8;curved=0;rounded=0;fontSize=12;" parent="1" source="7baba1c4bc27f4b0-3" edge="1">
          <mxGeometry x="-0.0756" y="230" relative="1" as="geometry">
            <mxPoint x="330" y="520" as="sourcePoint" />
            <mxPoint x="290" y="610" as="targetPoint" />
            <Array as="points" />
            <mxPoint x="1" as="offset" />
          </mxGeometry>
        </mxCell>
        <mxCell id="mBNDETqpcHyeqGvDYLxR-29" value="Confirmation stockage" style="text;whiteSpace=wrap;html=1;" parent="1" vertex="1">
          <mxGeometry x="320" y="580" width="150" height="40" as="geometry" />
        </mxCell>
        <mxCell id="mBNDETqpcHyeqGvDYLxR-34" value="Déclencher alerte" style="text;whiteSpace=wrap;html=1;" parent="1" vertex="1">
          <mxGeometry x="310" y="635" width="130" height="40" as="geometry" />
        </mxCell>
        <mxCell id="mBNDETqpcHyeqGvDYLxR-35" value="" style="endArrow=block;endFill=1;html=1;edgeStyle=orthogonalEdgeStyle;align=left;verticalAlign=top;rounded=0;fontSize=12;startSize=8;endSize=8;curved=1;exitX=0.7;exitY=0.712;exitDx=0;exitDy=0;exitPerimeter=0;" parent="1" edge="1" source="7baba1c4bc27f4b0-10">
          <mxGeometry x="-1" relative="1" as="geometry">
            <mxPoint x="300" y="711" as="sourcePoint" />
            <mxPoint x="490" y="711" as="targetPoint" />
            <Array as="points">
              <mxPoint x="480" y="721" />
              <mxPoint x="490" y="720" />
            </Array>
          </mxGeometry>
        </mxCell>
        <mxCell id="mBNDETqpcHyeqGvDYLxR-37" value="Notifier Administrateur&amp;nbsp;&lt;div&gt;&lt;br&gt;&lt;/div&gt;" style="endArrow=block;endFill=1;html=1;edgeStyle=orthogonalEdgeStyle;align=left;verticalAlign=top;rounded=0;fontSize=12;startSize=8;endSize=8;curved=1;" parent="1" source="7baba1c4bc27f4b0-3" edge="1">
          <mxGeometry x="-0.7096" y="41" relative="1" as="geometry">
            <mxPoint x="540" y="810" as="sourcePoint" />
            <mxPoint x="700" y="810" as="targetPoint" />
            <Array as="points">
              <mxPoint x="700" y="811" />
            </Array>
            <mxPoint x="-1" as="offset" />
          </mxGeometry>
        </mxCell>
        <mxCell id="mBNDETqpcHyeqGvDYLxR-42" value="" style="endArrow=block;endFill=1;html=1;edgeStyle=orthogonalEdgeStyle;align=left;verticalAlign=top;rounded=0;fontSize=12;startSize=8;endSize=8;curved=1;" parent="1" edge="1">
          <mxGeometry x="-1" relative="1" as="geometry">
            <mxPoint x="305" y="660" as="sourcePoint" />
            <mxPoint x="485" y="660" as="targetPoint" />
            <Array as="points">
              <mxPoint x="250" y="660" />
              <mxPoint x="485" y="661" />
            </Array>
          </mxGeometry>
        </mxCell>
        <mxCell id="mBNDETqpcHyeqGvDYLxR-45" value="Notification d&#39;erreur reçue" style="html=1;verticalAlign=bottom;endArrow=open;dashed=1;endSize=8;curved=0;rounded=0;fontSize=12;" parent="1" target="7baba1c4bc27f4b0-8" edge="1">
          <mxGeometry relative="1" as="geometry">
            <mxPoint x="280" y="850" as="sourcePoint" />
            <mxPoint x="80" y="867.5925925925926" as="targetPoint" />
            <Array as="points">
              <mxPoint x="140" y="850" />
            </Array>
          </mxGeometry>
        </mxCell>
        <mxCell id="mBNDETqpcHyeqGvDYLxR-47" value="&amp;nbsp; &amp;nbsp; &amp;nbsp; &amp;nbsp; &amp;nbsp;&amp;nbsp;&lt;span style=&quot;background-color: light-dark(#ffffff, var(--ge-dark-color, #121212)); color: light-dark(rgb(0, 0, 0), rgb(255, 255, 255));&quot;&gt;Corriger erreur&amp;nbsp;&amp;nbsp;&lt;/span&gt;" style="endArrow=block;endFill=1;html=1;edgeStyle=orthogonalEdgeStyle;align=left;verticalAlign=top;rounded=0;fontSize=12;startSize=8;endSize=8;curved=1;entryX=0.733;entryY=0.946;entryDx=0;entryDy=0;entryPerimeter=0;" parent="1" target="7baba1c4bc27f4b0-10" edge="1">
          <mxGeometry x="-0.7122" y="-10" relative="1" as="geometry">
            <mxPoint x="80" y="900" as="sourcePoint" />
            <mxPoint x="240" y="900" as="targetPoint" />
            <Array as="points">
              <mxPoint x="287" y="900" />
            </Array>
            <mxPoint as="offset" />
          </mxGeometry>
        </mxCell>
        <mxCell id="mBNDETqpcHyeqGvDYLxR-48" value="1" style="edgeLabel;resizable=0;html=1;align=left;verticalAlign=bottom;" parent="mBNDETqpcHyeqGvDYLxR-47" connectable="0" vertex="1">
          <mxGeometry x="-1" relative="1" as="geometry" />
        </mxCell>
        <mxCell id="mBNDETqpcHyeqGvDYLxR-57" value="[Pas d’erreur]&amp;nbsp;&lt;div&gt;&amp;nbsp;|Continuer normalement)&lt;/div&gt;" style="text;html=1;align=center;verticalAlign=middle;resizable=0;points=[];autosize=1;strokeColor=none;fillColor=none;fontSize=16;" parent="1" vertex="1">
          <mxGeometry x="70" y="970" width="200" height="50" as="geometry" />
        </mxCell>
        <mxCell id="mBNDETqpcHyeqGvDYLxR-58" value="LOOP" style="shape=umlFrame;whiteSpace=wrap;html=1;pointerEvents=0;" parent="1" vertex="1">
          <mxGeometry x="40" y="1080" width="850" height="310" as="geometry" />
        </mxCell>
        <mxCell id="mBNDETqpcHyeqGvDYLxR-59" style="edgeStyle=none;curved=1;rounded=0;orthogonalLoop=1;jettySize=auto;html=1;entryX=0.75;entryY=1;entryDx=0;entryDy=0;fontSize=12;startSize=8;endSize=8;" parent="1" source="mBNDETqpcHyeqGvDYLxR-36" target="mBNDETqpcHyeqGvDYLxR-36" edge="1">
          <mxGeometry relative="1" as="geometry" />
        </mxCell>
        <mxCell id="mBNDETqpcHyeqGvDYLxR-63" value="Corriger erreur&amp;nbsp;" style="html=1;verticalAlign=bottom;endArrow=block;curved=0;rounded=0;fontSize=12;startSize=8;endSize=8;" parent="1" source="7baba1c4bc27f4b0-8" target="7baba1c4bc27f4b0-2" edge="1">
          <mxGeometry width="80" relative="1" as="geometry">
            <mxPoint x="420" y="730" as="sourcePoint" />
            <mxPoint x="500" y="730" as="targetPoint" />
            <Array as="points">
              <mxPoint x="150" y="1190" />
              <mxPoint x="180" y="1190" />
            </Array>
          </mxGeometry>
        </mxCell>
        <mxCell id="mBNDETqpcHyeqGvDYLxR-64" value="Vérifier correction&amp;nbsp;" style="html=1;verticalAlign=bottom;endArrow=block;curved=0;rounded=0;fontSize=12;startSize=8;endSize=8;" parent="1" edge="1">
          <mxGeometry width="80" relative="1" as="geometry">
            <mxPoint x="290" y="1230" as="sourcePoint" />
            <mxPoint x="490" y="1230" as="targetPoint" />
            <Array as="points" />
          </mxGeometry>
        </mxCell>
        <mxCell id="mBNDETqpcHyeqGvDYLxR-69" value="Exécuter nouvelle analyse" style="html=1;verticalAlign=bottom;endArrow=open;dashed=1;endSize=8;curved=0;rounded=0;fontSize=12;" parent="1" edge="1">
          <mxGeometry relative="1" as="geometry">
            <mxPoint x="490.11" y="1275" as="sourcePoint" />
            <mxPoint x="289.9988888888889" y="1275" as="targetPoint" />
            <Array as="points" />
          </mxGeometry>
        </mxCell>
        <mxCell id="mBNDETqpcHyeqGvDYLxR-72" value="Erreur corrigée ?&amp;nbsp;" style="html=1;verticalAlign=bottom;endArrow=block;curved=0;rounded=0;fontSize=12;startSize=8;endSize=8;" parent="1" target="7baba1c4bc27f4b0-3" edge="1">
          <mxGeometry width="80" relative="1" as="geometry">
            <mxPoint x="290" y="1310" as="sourcePoint" />
            <mxPoint x="350" y="1300" as="targetPoint" />
          </mxGeometry>
        </mxCell>
        <mxCell id="mBNDETqpcHyeqGvDYLxR-73" value="Oui / Non&amp;nbsp;" style="html=1;verticalAlign=bottom;endArrow=open;dashed=1;endSize=8;curved=0;rounded=0;fontSize=12;" parent="1" target="7baba1c4bc27f4b0-2" edge="1">
          <mxGeometry relative="1" as="geometry">
            <mxPoint x="490" y="1360" as="sourcePoint" />
            <mxPoint x="410" y="1360" as="targetPoint" />
          </mxGeometry>
        </mxCell>
        <mxCell id="2hvQQX04gWuhlepmC8Tm-1" value="while(erreur non corrigée)" style="text;html=1;align=center;verticalAlign=middle;resizable=0;points=[];autosize=1;strokeColor=none;fillColor=none;" vertex="1" parent="1">
          <mxGeometry x="110" y="1080" width="160" height="30" as="geometry" />
        </mxCell>
        <mxCell id="mBNDETqpcHyeqGvDYLxR-36" value="Envoyer notification" style="text;whiteSpace=wrap;html=1;" parent="1" vertex="1">
          <mxGeometry x="325" y="690" width="140" height="40" as="geometry" />
        </mxCell>
        <mxCell id="2hvQQX04gWuhlepmC8Tm-7" value="" style="endArrow=none;html=1;rounded=0;" edge="1" parent="1">
          <mxGeometry width="50" height="50" relative="1" as="geometry">
            <mxPoint x="20" y="960" as="sourcePoint" />
            <mxPoint x="900" y="960" as="targetPoint" />
            <Array as="points">
              <mxPoint x="490" y="960" />
            </Array>
          </mxGeometry>
        </mxCell>
      </root>
    </mxGraphModel>
  </diagram>
</mxfile>
